<svg width="27" height="32" viewBox="0 0 27 32" fill="none" xmlns="http://www.w3.org/2000/svg">
<path d="M9.0135 7.36C9.0135 6.816 8.7975 6.384 8.3655 6.064C7.9335 5.728 7.3415 5.56 6.5895 5.56C5.8215 5.56 5.2055 5.696 4.7415 5.968C4.2935 6.24 4.0695 6.584 4.0695 7C4.0695 7.368 4.2055 7.672 4.4775 7.912C4.7655 8.152 5.1095 8.344 5.5095 8.488C5.9255 8.632 6.5175 8.8 7.2855 8.992C8.4055 9.264 9.3095 9.544 9.9975 9.832C10.7015 10.104 11.3015 10.536 11.7975 11.128C12.3095 11.72 12.5655 12.52 12.5655 13.528C12.5655 15.128 12.0855 16.336 11.1255 17.152C10.1815 17.968 8.8775 18.424 7.2135 18.52C7.3575 19.512 7.4615 20.2 7.5255 20.584H5.1015L5.4135 18.496C3.8935 18.368 2.6535 17.92 1.6935 17.152C0.7495 16.368 0.2775 15.256 0.2775 13.816L0.3015 13.336H3.5415L3.5175 13.696C3.5175 14.336 3.7495 14.832 4.2135 15.184C4.6775 15.536 5.3495 15.712 6.2295 15.712C7.2535 15.712 7.9815 15.56 8.4135 15.256C8.8615 14.952 9.0855 14.56 9.0855 14.08C9.0855 13.696 8.9495 13.384 8.6775 13.144C8.4055 12.904 8.0615 12.712 7.6455 12.568C7.2455 12.424 6.6695 12.256 5.9175 12.064C4.8295 11.808 3.9255 11.536 3.2055 11.248C2.5015 10.96 1.8935 10.504 1.3815 9.88C0.8855 9.256 0.6375 8.416 0.6375 7.36C0.6375 6.064 1.0775 5.04 1.9575 4.288C2.8375 3.52 3.9895 3.056 5.4135 2.896C5.2855 1.968 5.1815 1.272 5.1015 0.808H7.5255C7.4295 1.336 7.3255 2.024 7.2135 2.872C8.7175 2.968 9.9255 3.392 10.8375 4.144C11.7655 4.88 12.2295 5.936 12.2295 7.312V7.576H9.0135V7.36ZM23.076 7.36C23.076 6.816 22.86 6.384 22.428 6.064C21.996 5.728 21.404 5.56 20.652 5.56C19.884 5.56 19.268 5.696 18.804 5.968C18.356 6.24 18.132 6.584 18.132 7C18.132 7.368 18.268 7.672 18.54 7.912C18.828 8.152 19.172 8.344 19.572 8.488C19.988 8.632 20.58 8.8 21.348 8.992C22.468 9.264 23.372 9.544 24.06 9.832C24.764 10.104 25.364 10.536 25.86 11.128C26.372 11.72 26.628 12.52 26.628 13.528C26.628 15.128 26.148 16.336 25.188 17.152C24.244 17.968 22.94 18.424 21.276 18.52C21.42 19.512 21.524 20.2 21.588 20.584H19.164L19.476 18.496C17.956 18.368 16.716 17.92 15.756 17.152C14.812 16.368 14.34 15.256 14.34 13.816L14.364 13.336H17.604L17.58 13.696C17.58 14.336 17.812 14.832 18.276 15.184C18.74 15.536 19.412 15.712 20.292 15.712C21.316 15.712 22.044 15.56 22.476 15.256C22.924 14.952 23.148 14.56 23.148 14.08C23.148 13.696 23.012 13.384 22.74 13.144C22.468 12.904 22.124 12.712 21.708 12.568C21.308 12.424 20.732 12.256 19.98 12.064C18.892 11.808 17.988 11.536 17.268 11.248C16.564 10.96 15.956 10.504 15.444 9.88C14.948 9.256 14.7 8.416 14.7 7.36C14.7 6.064 15.14 5.04 16.02 4.288C16.9 3.52 18.052 3.056 19.476 2.896C19.348 1.968 19.244 1.272 19.164 0.808H21.588C21.492 1.336 21.388 2.024 21.276 2.872C22.78 2.968 23.988 3.392 24.9 4.144C25.828 4.88 26.292 5.936 26.292 7.312V7.576H23.076V7.36ZM5.01184 24.14C5.3985 24.14 5.7485 24.2267 6.06184 24.4C6.37517 24.5733 6.6185 24.8133 6.79184 25.12C6.97184 25.42 7.06184 25.76 7.06184 26.14C7.06184 26.52 6.97184 26.8633 6.79184 27.17C6.6185 27.47 6.37517 27.7067 6.06184 27.88C5.7485 28.0533 5.3985 28.14 5.01184 28.14H3.03184V31H2.05184V24.14H5.01184ZM3.03184 25.03V27.25H4.92184C5.23517 27.25 5.50517 27.1433 5.73184 26.93C5.96517 26.71 6.08184 26.4467 6.08184 26.14C6.08184 25.8267 5.96517 25.5633 5.73184 25.35C5.50517 25.1367 5.23517 25.03 4.92184 25.03H3.03184ZM10.5021 25.79C10.9754 25.79 11.3454 25.9433 11.6121 26.25C11.8787 26.55 12.0121 26.93 12.0121 27.39L11.9821 27.77H11.1521V27.55C11.1521 27.35 11.1021 27.1733 11.0021 27.02C10.9021 26.8667 10.7754 26.75 10.6221 26.67C10.4687 26.5833 10.3154 26.54 10.1621 26.54C9.84207 26.54 9.59207 26.6667 9.41207 26.92C9.23207 27.1733 9.14207 27.5167 9.14207 27.95V31H8.20207V25.89H8.87207L9.01207 26.65C9.05207 26.5167 9.14207 26.3833 9.28207 26.25C9.42207 26.1167 9.5954 26.0067 9.80207 25.92C10.0154 25.8333 10.2487 25.79 10.5021 25.79ZM14.0644 23.8V24.67H13.0844V23.8H14.0644ZM14.0444 25.89V31H13.1044V25.89H14.0444ZM17.7021 25.79C18.1087 25.79 18.4721 25.88 18.7921 26.06C19.1187 26.2333 19.3721 26.48 19.5521 26.8C19.7321 27.12 19.8221 27.4867 19.8221 27.9H18.8921C18.8921 27.4867 18.7854 27.1567 18.5721 26.91C18.3654 26.6633 18.0654 26.54 17.6721 26.54C17.2587 26.54 16.9287 26.68 16.6821 26.96C16.4421 27.2333 16.3221 27.61 16.3221 28.09V28.63C16.3221 29.21 16.4421 29.6433 16.6821 29.93C16.9221 30.21 17.2621 30.35 17.7021 30.35C18.1087 30.35 18.4121 30.23 18.6121 29.99C18.8187 29.7433 18.9221 29.4133 18.9221 29H19.8221C19.8221 29.64 19.6287 30.15 19.2421 30.53C18.8621 30.91 18.3521 31.1 17.7121 31.1H17.6321C17.1787 31.1 16.7821 30.9967 16.4421 30.79C16.1021 30.5767 15.8387 30.28 15.6521 29.9C15.4721 29.52 15.3821 29.0767 15.3821 28.57V28.33C15.3821 27.8233 15.4754 27.38 15.6621 27C15.8487 26.6133 16.1121 26.3167 16.4521 26.11C16.7921 25.8967 17.1821 25.79 17.6221 25.79H17.7021ZM23.1915 25.79C23.6115 25.79 23.9815 25.88 24.3015 26.06C24.6282 26.2333 24.8815 26.4833 25.0615 26.81C25.2415 27.1367 25.3315 27.5167 25.3315 27.95V28.66H21.7615C21.7749 29.2 21.9015 29.6167 22.1415 29.91C22.3815 30.2033 22.7382 30.35 23.2115 30.35C23.6315 30.35 23.9415 30.2267 24.1415 29.98C24.3415 29.7333 24.4415 29.44 24.4415 29.1H25.3315C25.3315 29.5 25.2382 29.85 25.0515 30.15C24.8715 30.45 24.6182 30.6833 24.2915 30.85C23.9715 31.0167 23.6049 31.1 23.1915 31.1H23.1515C22.4315 31.1 21.8615 30.87 21.4415 30.41C21.0282 29.9433 20.8215 29.3233 20.8215 28.55V28.35C20.8215 27.8433 20.9149 27.3967 21.1015 27.01C21.2882 26.6233 21.5549 26.3233 21.9015 26.11C22.2482 25.8967 22.6549 25.79 23.1215 25.79H23.1915ZM23.1415 26.54C22.7615 26.54 22.4515 26.6567 22.2115 26.89C21.9782 27.1233 21.8349 27.47 21.7815 27.93H24.4015V27.81C24.4015 27.43 24.2849 27.1233 24.0515 26.89C23.8249 26.6567 23.5215 26.54 23.1415 26.54Z" fill="black"/>
</svg>
