<svg width="39" height="31" viewBox="0 0 39 31" fill="none" xmlns="http://www.w3.org/2000/svg">
<path d="M12.9887 6.128C14.0927 6.128 15.0447 6.368 15.8447 6.848C16.6447 7.312 17.2447 7.968 17.6447 8.816C18.0607 9.648 18.2687 10.592 18.2687 11.648C18.2687 12.72 18.0127 13.68 17.5007 14.528C17.0047 15.376 16.3007 16.04 15.3887 16.52C14.4927 17 13.4607 17.24 12.2927 17.24H11.9327C10.7487 17.24 9.70869 17 8.81269 16.52C7.91669 16.024 7.22069 15.36 6.72469 14.528C6.24469 13.696 5.99669 12.768 5.98069 11.744H9.26869C9.28469 12.496 9.55669 13.12 10.0847 13.616C10.6287 14.096 11.2607 14.336 11.9807 14.336C12.7967 14.336 13.4527 14.08 13.9487 13.568C14.4607 13.056 14.7167 12.384 14.7167 11.552C14.7167 10.8 14.4847 10.168 14.0207 9.656C13.5727 9.128 12.9487 8.864 12.1487 8.864C11.0287 8.864 10.1727 9.28 9.58069 10.112L6.62869 9.68L7.30069 0.535999H17.2127V3.656H10.0847L9.79669 7.28C10.7727 6.512 11.8367 6.128 12.9887 6.128ZM32.988 2.264C31.276 4.456 29.884 6.664 28.812 8.888C27.74 11.112 27.204 13.376 27.204 15.68C27.204 16.368 27.212 16.808 27.228 17H23.196C23.196 14.68 23.732 12.408 24.804 10.184C25.876 7.96 27.236 5.792 28.884 3.68H21.084V0.535999H32.988V2.264ZM3.74133 22.14C4.12799 22.14 4.47799 22.2267 4.79133 22.4C5.10466 22.5733 5.348 22.8133 5.52133 23.12C5.70133 23.42 5.79133 23.76 5.79133 24.14C5.79133 24.52 5.70133 24.8633 5.52133 25.17C5.348 25.47 5.10466 25.7067 4.79133 25.88C4.47799 26.0533 4.12799 26.14 3.74133 26.14H1.76133V29H0.781328V22.14H3.74133ZM1.76133 23.03V25.25H3.65133C3.96466 25.25 4.23466 25.1433 4.46133 24.93C4.69466 24.71 4.81133 24.4467 4.81133 24.14C4.81133 23.8267 4.69466 23.5633 4.46133 23.35C4.23466 23.1367 3.96466 23.03 3.65133 23.03H1.76133ZM9.23156 23.79C9.7049 23.79 10.0749 23.9433 10.3416 24.25C10.6082 24.55 10.7416 24.93 10.7416 25.39L10.7116 25.77H9.88156V25.55C9.88156 25.35 9.83156 25.1733 9.73156 25.02C9.63156 24.8667 9.5049 24.75 9.35156 24.67C9.19823 24.5833 9.0449 24.54 8.89156 24.54C8.57156 24.54 8.32156 24.6667 8.14156 24.92C7.96156 25.1733 7.87156 25.5167 7.87156 25.95V29H6.93156V23.89H7.60156L7.74156 24.65C7.78156 24.5167 7.87156 24.3833 8.01156 24.25C8.15156 24.1167 8.3249 24.0067 8.53156 23.92C8.7449 23.8333 8.97823 23.79 9.23156 23.79ZM13.8739 23.79C14.5872 23.79 15.1572 24.01 15.5839 24.45C16.0106 24.89 16.2239 25.4933 16.2239 26.26V26.63C16.2239 27.3967 16.0139 28 15.5939 28.44C15.1739 28.88 14.6006 29.1 13.8739 29.1C13.1472 29.1 12.5739 28.88 12.1539 28.44C11.7339 28 11.5239 27.3967 11.5239 26.63V26.26C11.5239 25.4933 11.7372 24.89 12.1639 24.45C12.5906 24.01 13.1606 23.79 13.8739 23.79ZM13.8739 24.54C13.4272 24.54 13.0806 24.6933 12.8339 25C12.5872 25.3067 12.4639 25.7567 12.4639 26.35V26.54C12.4639 27.12 12.5839 27.5667 12.8239 27.88C13.0706 28.1933 13.4206 28.35 13.8739 28.35C14.3139 28.35 14.6572 28.1967 14.9039 27.89C15.1572 27.5767 15.2839 27.1267 15.2839 26.54V26.35C15.2839 25.77 15.1606 25.3233 14.9139 25.01C14.6739 24.6967 14.3272 24.54 13.8739 24.54ZM18.5361 21.8V22.67H17.5561V21.8H18.5361ZM18.5161 29.15C18.5161 29.7567 18.4228 30.1933 18.2361 30.46C18.0494 30.7267 17.7261 30.86 17.2661 30.86C16.9194 30.86 16.6328 30.7967 16.4061 30.67V29.97C16.6261 30.07 16.7994 30.12 16.9261 30.12C17.1728 30.12 17.3428 30.0667 17.4361 29.96C17.5294 29.86 17.5761 29.6867 17.5761 29.44V23.89H18.5161V29.15ZM22.2238 23.79C22.6438 23.79 23.0138 23.88 23.3338 24.06C23.6604 24.2333 23.9138 24.4833 24.0938 24.81C24.2738 25.1367 24.3638 25.5167 24.3638 25.95V26.66H20.7938C20.8071 27.2 20.9338 27.6167 21.1738 27.91C21.4138 28.2033 21.7704 28.35 22.2438 28.35C22.6638 28.35 22.9738 28.2267 23.1738 27.98C23.3738 27.7333 23.4738 27.44 23.4738 27.1H24.3638C24.3638 27.5 24.2704 27.85 24.0838 28.15C23.9038 28.45 23.6504 28.6833 23.3238 28.85C23.0038 29.0167 22.6371 29.1 22.2238 29.1H22.1838C21.4638 29.1 20.8938 28.87 20.4738 28.41C20.0604 27.9433 19.8538 27.3233 19.8538 26.55V26.35C19.8538 25.8433 19.9471 25.3967 20.1338 25.01C20.3204 24.6233 20.5871 24.3233 20.9338 24.11C21.2804 23.8967 21.6871 23.79 22.1538 23.79H22.2238ZM22.1738 24.54C21.7938 24.54 21.4838 24.6567 21.2438 24.89C21.0104 25.1233 20.8671 25.47 20.8137 25.93H23.4338V25.81C23.4338 25.43 23.3171 25.1233 23.0838 24.89C22.8571 24.6567 22.5538 24.54 22.1738 24.54ZM27.7304 23.79C28.1371 23.79 28.5004 23.88 28.8204 24.06C29.1471 24.2333 29.4004 24.48 29.5804 24.8C29.7604 25.12 29.8504 25.4867 29.8504 25.9H28.9204C28.9204 25.4867 28.8137 25.1567 28.6004 24.91C28.3937 24.6633 28.0937 24.54 27.7004 24.54C27.2871 24.54 26.9571 24.68 26.7104 24.96C26.4704 25.2333 26.3504 25.61 26.3504 26.09V26.63C26.3504 27.21 26.4704 27.6433 26.7104 27.93C26.9504 28.21 27.2904 28.35 27.7304 28.35C28.1371 28.35 28.4404 28.23 28.6404 27.99C28.8471 27.7433 28.9504 27.4133 28.9504 27H29.8504C29.8504 27.64 29.6571 28.15 29.2704 28.53C28.8904 28.91 28.3804 29.1 27.7404 29.1H27.6604C27.2071 29.1 26.8104 28.9967 26.4704 28.79C26.1304 28.5767 25.8671 28.28 25.6804 27.9C25.5004 27.52 25.4104 27.0767 25.4104 26.57V26.33C25.4104 25.8233 25.5037 25.38 25.6904 25C25.8771 24.6133 26.1404 24.3167 26.4804 24.11C26.8204 23.8967 27.2104 23.79 27.6504 23.79H27.7304ZM32.2698 23.89H33.4598V24.64H32.2698V27.69C32.2698 27.93 32.3165 28.1033 32.4098 28.21C32.5032 28.3167 32.6465 28.37 32.8398 28.37C33.0132 28.37 33.2198 28.32 33.4598 28.22V28.92C33.2198 29.04 32.9098 29.1 32.5298 29.1C32.1365 29.1 31.8365 28.9833 31.6298 28.75C31.4298 28.5167 31.3298 28.1467 31.3298 27.64V24.64H30.7698V23.89H31.3598L31.6798 22.26H32.2698V23.89ZM36.5769 23.79C36.9569 23.79 37.2935 23.85 37.5869 23.97C37.8869 24.09 38.1169 24.2567 38.2769 24.47C38.4435 24.6833 38.5269 24.92 38.5269 25.18L38.5169 25.36H37.5869V25.27C37.5869 24.7833 37.2102 24.54 36.4569 24.54C35.7102 24.54 35.3369 24.7633 35.3369 25.21C35.3369 25.4167 35.4435 25.57 35.6569 25.67C35.8702 25.7633 36.1969 25.8533 36.6369 25.94C37.0569 26.0267 37.4002 26.1167 37.6669 26.21C37.9402 26.3033 38.1702 26.45 38.3569 26.65C38.5502 26.85 38.6469 27.12 38.6469 27.46C38.6469 28.0067 38.4602 28.4167 38.0869 28.69C37.7135 28.9633 37.1769 29.1 36.4769 29.1H36.3269C35.9069 29.1 35.5402 29.0367 35.2269 28.91C34.9135 28.7767 34.6702 28.6 34.4969 28.38C34.3302 28.1533 34.2502 27.9 34.2569 27.62V27.4H35.1869V27.5C35.1869 28.0667 35.6635 28.35 36.6169 28.35C36.8969 28.35 37.1469 28.2867 37.3669 28.16C37.5935 28.0333 37.7069 27.86 37.7069 27.64C37.7069 27.4533 37.6435 27.3067 37.5169 27.2C37.3969 27.0933 37.2469 27.0133 37.0669 26.96C36.8869 26.9067 36.6369 26.8533 36.3169 26.8C35.9035 26.72 35.5702 26.64 35.3169 26.56C35.0635 26.4733 34.8469 26.33 34.6669 26.13C34.4869 25.93 34.3969 25.6567 34.3969 25.31C34.3969 24.8367 34.5835 24.4667 34.9569 24.2C35.3302 23.9267 35.8402 23.79 36.4869 23.79H36.5769Z" fill="black"/>
</svg>
