<svg width="28" height="30" viewBox="0 0 28 30" fill="none" xmlns="http://www.w3.org/2000/svg">
<path d="M18.0003 8.648C18.8643 9.096 19.5123 9.616 19.9443 10.208C20.3923 10.784 20.6163 11.552 20.6163 12.512C20.6163 14.016 20.0723 15.184 18.9843 16.016C17.8963 16.832 16.4003 17.24 14.4963 17.24C12.6563 17.24 11.1763 16.824 10.0563 15.992C8.93634 15.16 8.37634 14 8.37634 12.512C8.37634 11.552 8.59234 10.776 9.02434 10.184C9.47234 9.592 10.1283 9.08 10.9923 8.648V8.552C10.3043 8.088 9.78434 7.6 9.43234 7.088C9.09634 6.576 8.92834 5.88 8.92834 5C8.92834 4.024 9.16834 3.184 9.64834 2.48C10.1283 1.76 10.7843 1.216 11.6163 0.847999C12.4643 0.479999 13.4243 0.295999 14.4963 0.295999C15.5683 0.295999 16.5203 0.479999 17.3523 0.847999C18.2003 1.216 18.8643 1.76 19.3443 2.48C19.8243 3.184 20.0643 4.024 20.0643 5C20.0643 5.88 19.8883 6.576 19.5363 7.088C19.2003 7.6 18.6883 8.088 18.0003 8.552V8.648ZM12.2163 5.312C12.2163 5.904 12.4323 6.408 12.8643 6.824C13.2963 7.224 13.8403 7.424 14.4963 7.424C15.1523 7.424 15.6963 7.224 16.1283 6.824C16.5603 6.408 16.7763 5.904 16.7763 5.312V5.048C16.7763 4.456 16.5603 3.96 16.1283 3.56C15.6963 3.144 15.1523 2.936 14.4963 2.936C13.8403 2.936 13.2963 3.144 12.8643 3.56C12.4323 3.96 12.2163 4.456 12.2163 5.048V5.312ZM11.9523 12.392C11.9523 13.064 12.1923 13.6 12.6723 14C13.1523 14.4 13.7603 14.6 14.4963 14.6C15.2323 14.6 15.8403 14.4 16.3203 14C16.8003 13.6 17.0403 13.064 17.0403 12.392V12.008C17.0403 11.336 16.8003 10.8 16.3203 10.4C15.8403 10 15.2323 9.8 14.4963 9.8C13.7603 9.8 13.1523 10 12.6723 10.4C12.1923 10.8 11.9523 11.336 11.9523 12.008V12.392ZM6.57348 22.14L4.16348 26.35V29H3.18348V26.35L0.763477 22.14H1.88348L3.71348 25.33H3.75348L5.56348 22.14H6.57348ZM9.41613 23.79C9.83613 23.79 10.2061 23.88 10.5261 24.06C10.8528 24.2333 11.1061 24.4833 11.2861 24.81C11.4661 25.1367 11.5561 25.5167 11.5561 25.95V26.66H7.98613C7.99947 27.2 8.12613 27.6167 8.36613 27.91C8.60613 28.2033 8.9628 28.35 9.43613 28.35C9.85613 28.35 10.1661 28.2267 10.3661 27.98C10.5661 27.7333 10.6661 27.44 10.6661 27.1H11.5561C11.5561 27.5 11.4628 27.85 11.2761 28.15C11.0961 28.45 10.8428 28.6833 10.5161 28.85C10.1961 29.0167 9.82947 29.1 9.41613 29.1H9.37613C8.65613 29.1 8.08613 28.87 7.66613 28.41C7.2528 27.9433 7.04613 27.3233 7.04613 26.55V26.35C7.04613 25.8433 7.13947 25.3967 7.32613 25.01C7.5128 24.6233 7.77947 24.3233 8.12613 24.11C8.4728 23.8967 8.87947 23.79 9.34613 23.79H9.41613ZM9.36613 24.54C8.98613 24.54 8.67613 24.6567 8.43613 24.89C8.2028 25.1233 8.05947 25.47 8.00613 25.93H10.6261V25.81C10.6261 25.43 10.5095 25.1233 10.2761 24.89C10.0495 24.6567 9.74613 24.54 9.36613 24.54ZM14.9328 23.79C15.6061 23.79 16.1061 23.9233 16.4328 24.19C16.7661 24.4567 16.9328 24.8433 16.9328 25.35V28C16.9328 28.12 16.9594 28.21 17.0128 28.27C17.0661 28.3233 17.1328 28.35 17.2128 28.35C17.3661 28.35 17.5194 28.3033 17.6728 28.21V28.9C17.4461 29.0333 17.1894 29.1 16.9028 29.1C16.6161 29.1 16.4028 29.02 16.2628 28.86C16.1228 28.6933 16.0461 28.4667 16.0328 28.18C15.6194 28.7933 15.0228 29.1 14.2428 29.1C13.6828 29.1 13.2628 28.98 12.9828 28.74C12.7094 28.4933 12.5728 28.1067 12.5728 27.58C12.5728 27.1667 12.6794 26.8433 12.8928 26.61C13.1061 26.37 13.4594 26.1967 13.9528 26.09C14.4461 25.9833 15.1261 25.93 15.9928 25.93V25.46C15.9928 25.12 15.8928 24.8833 15.6928 24.75C15.4928 24.61 15.2028 24.54 14.8228 24.54C14.4628 24.54 14.1828 24.61 13.9828 24.75C13.7828 24.89 13.6828 25.0867 13.6828 25.34V25.46H12.7628C12.7494 25.3667 12.7428 25.2567 12.7428 25.13C12.7428 24.8967 12.8361 24.6767 13.0228 24.47C13.2094 24.2633 13.4628 24.1 13.7828 23.98C14.1028 23.8533 14.4561 23.79 14.8428 23.79H14.9328ZM15.9928 26.66C15.2928 26.66 14.7628 26.6967 14.4028 26.77C14.0494 26.8367 13.8128 26.94 13.6928 27.08C13.5728 27.22 13.5128 27.4133 13.5128 27.66C13.5128 28.12 13.8628 28.35 14.5628 28.35C14.8094 28.35 15.0428 28.29 15.2628 28.17C15.4828 28.0433 15.6594 27.8667 15.7928 27.64C15.9261 27.4133 15.9928 27.1533 15.9928 26.86V26.66ZM21.0724 23.79C21.5457 23.79 21.9157 23.9433 22.1824 24.25C22.449 24.55 22.5824 24.93 22.5824 25.39L22.5524 25.77H21.7224V25.55C21.7224 25.35 21.6724 25.1733 21.5724 25.02C21.4724 24.8667 21.3457 24.75 21.1924 24.67C21.039 24.5833 20.8857 24.54 20.7324 24.54C20.4124 24.54 20.1624 24.6667 19.9824 24.92C19.8024 25.1733 19.7124 25.5167 19.7124 25.95V29H18.7724V23.89H19.4424L19.5824 24.65C19.6224 24.5167 19.7124 24.3833 19.8524 24.25C19.9924 24.1167 20.1657 24.0067 20.3724 23.92C20.5857 23.8333 20.819 23.79 21.0724 23.79ZM25.6247 23.79C26.0047 23.79 26.3414 23.85 26.6347 23.97C26.9347 24.09 27.1647 24.2567 27.3247 24.47C27.4914 24.6833 27.5747 24.92 27.5747 25.18L27.5647 25.36H26.6347V25.27C26.6347 24.7833 26.2581 24.54 25.5047 24.54C24.7581 24.54 24.3847 24.7633 24.3847 25.21C24.3847 25.4167 24.4914 25.57 24.7047 25.67C24.9181 25.7633 25.2447 25.8533 25.6847 25.94C26.1047 26.0267 26.4481 26.1167 26.7147 26.21C26.9881 26.3033 27.2181 26.45 27.4047 26.65C27.5981 26.85 27.6947 27.12 27.6947 27.46C27.6947 28.0067 27.5081 28.4167 27.1347 28.69C26.7614 28.9633 26.2247 29.1 25.5247 29.1H25.3747C24.9547 29.1 24.5881 29.0367 24.2747 28.91C23.9614 28.7767 23.7181 28.6 23.5447 28.38C23.3781 28.1533 23.2981 27.9 23.3047 27.62V27.4H24.2347V27.5C24.2347 28.0667 24.7114 28.35 25.6647 28.35C25.9447 28.35 26.1947 28.2867 26.4147 28.16C26.6414 28.0333 26.7547 27.86 26.7547 27.64C26.7547 27.4533 26.6914 27.3067 26.5647 27.2C26.4447 27.0933 26.2947 27.0133 26.1147 26.96C25.9347 26.9067 25.6847 26.8533 25.3647 26.8C24.9514 26.72 24.6181 26.64 24.3647 26.56C24.1114 26.4733 23.8947 26.33 23.7147 26.13C23.5347 25.93 23.4447 25.6567 23.4447 25.31C23.4447 24.8367 23.6314 24.4667 24.0047 24.2C24.3781 23.9267 24.8881 23.79 25.5347 23.79H25.6247Z" fill="black"/>
</svg>
